<?xml version="1.0"?>
<svg xmlns="http://www.w3.org/2000/svg" xmlns:xlink="http://www.w3.org/1999/xlink" xmlns:svgjs="http://svgjs.com/svgjs" version="1.1" width="512" height="512" x="0" y="0" viewBox="0 0 166.416 166.416" style="enable-background:new 0 0 512 512" xml:space="preserve" class=""><g>
<g xmlns="http://www.w3.org/2000/svg">
	<path d="M31.028,124.998c2.317,0,4.195,1.875,4.195,4.201c0,2.314-1.878,4.189-4.195,4.189c-2.32,0-4.199-1.875-4.199-4.189   C26.829,126.873,28.708,124.998,31.028,124.998z M26.829,91.787c0,2.314,1.878,4.189,4.199,4.189c2.317,0,4.195-1.875,4.195-4.189   c0-2.326-1.878-4.201-4.195-4.201C28.708,87.586,26.829,89.461,26.829,91.787z M26.829,54.373c0,2.319,1.878,4.195,4.199,4.195   c2.317,0,4.195-1.876,4.195-4.195c0-2.32-1.878-4.196-4.195-4.196C28.708,50.177,26.829,52.053,26.829,54.373z M110.637,141.798   c-2.88,0-5.688-0.384-8.452-0.919h-77.91c-3.206,0-5.836-2.631-5.836-5.853v-11.667c0-3.221,2.63-5.839,5.836-5.839h47.349   c-2.213-4.47-3.641-9.22-4.214-14.066H24.275c-3.206,0-5.836-2.63-5.836-5.845V85.948c0-3.222,2.63-5.843,5.836-5.843h46.868   c2.463-5.361,5.949-10.132,10.315-14.066H24.275c-3.206,0-5.836-2.625-5.836-5.842V48.536c0-3.218,2.63-5.842,5.836-5.842h105.05   c3.209,0,5.84,2.625,5.84,5.842v11.667c0,0.746-0.165,1.446-0.42,2.101c1.649,1.096,3.209,2.302,4.688,3.617   c0.974-1.689,1.57-3.629,1.57-5.718V48.536c0-0.131-0.061-0.231-0.061-0.356L129.3,5.8c-0.347-3.185-3.55-5.8-7.13-5.8H31.445   c-3.568,0-6.777,2.615-7.127,5.8L12.675,48.18c0,0.125-0.061,0.225-0.061,0.356v11.667c0,3.029,1.19,5.778,3.094,7.855   l-3.033,17.531c0,0.128-0.061,0.231-0.061,0.359v11.667c0,3.025,1.19,5.784,3.094,7.854L12.675,123   c0,0.129-0.061,0.232-0.061,0.359v11.667c0,6.437,5.237,11.679,11.667,11.679h96.354l-3.178-5.522   C115.198,141.555,112.927,141.798,110.637,141.798z M142.843,79.701c10.26,17.787,4.152,40.621-13.646,50.875   c-17.786,10.267-40.611,4.165-50.875-13.64c-10.27-17.78-4.153-40.603,13.63-50.872C109.736,55.807,132.558,61.911,142.843,79.701z    M137.491,82.794c-8.574-14.849-27.621-19.948-42.466-11.393c-14.846,8.573-19.951,27.62-11.359,42.453   c8.562,14.846,27.605,19.973,42.45,11.399C140.967,116.668,146.052,97.639,137.491,82.794z M138.562,128.286l-16.008,9.255   l12.33,21.337l16.009-9.249L138.562,128.286z M152.555,152.545l-16.015,9.244c2.558,4.433,8.208,5.93,12.629,3.397   C153.59,162.629,155.125,156.979,152.555,152.545z" fill="#ffffff" data-original="#000000" style="" class=""/>
</g>
<g xmlns="http://www.w3.org/2000/svg">
</g>
<g xmlns="http://www.w3.org/2000/svg">
</g>
<g xmlns="http://www.w3.org/2000/svg">
</g>
<g xmlns="http://www.w3.org/2000/svg">
</g>
<g xmlns="http://www.w3.org/2000/svg">
</g>
<g xmlns="http://www.w3.org/2000/svg">
</g>
<g xmlns="http://www.w3.org/2000/svg">
</g>
<g xmlns="http://www.w3.org/2000/svg">
</g>
<g xmlns="http://www.w3.org/2000/svg">
</g>
<g xmlns="http://www.w3.org/2000/svg">
</g>
<g xmlns="http://www.w3.org/2000/svg">
</g>
<g xmlns="http://www.w3.org/2000/svg">
</g>
<g xmlns="http://www.w3.org/2000/svg">
</g>
<g xmlns="http://www.w3.org/2000/svg">
</g>
<g xmlns="http://www.w3.org/2000/svg">
</g>
</g></svg>
